HIERARCHY
ROOT hip
{
	OFFSET 0.000000 0.000000 0.000000
	CHANNELS 6 Xposition Yposition Zposition Xrotation Zrotation Yrotation 
	JOINT abdomen
	{
		OFFSET 0.000000 3.422050 0.000000
		CHANNELS 3 Xrotation Zrotation Yrotation 
		JOINT chest
		{
			OFFSET 0.000000 8.486693 -0.684411
			CHANNELS 3 Xrotation Zrotation Yrotation 
			JOINT neck
			{
				OFFSET 0.000000 10.266162 -0.273764
				CHANNELS 3 Xrotation Zrotation Yrotation 
				JOINT head
				{
					OFFSET 0.000000 3.148285 0.000000
					CHANNELS 3 Xrotation Zrotation Yrotation 
					End Site
					{
						OFFSET 0.000000 3.148289 0.000000
					}
				}
			}
			JOINT lCollar
			{
				OFFSET 3.422053 6.707223 -0.821293
				CHANNELS 3 Yrotation Zrotation Xrotation 
				JOINT lShldr
				{
					OFFSET 3.285171 0.000000 0.000000
					CHANNELS 3 Zrotation Yrotation Xrotation 
					JOINT lForeArm
					{
						OFFSET 10.129278 0.000000 0.000000
						CHANNELS 3 Yrotation Zrotation Xrotation 
						JOINT lHand
						{
							OFFSET 8.486692 0.000000 0.000000
							CHANNELS 3 Zrotation Yrotation Xrotation 
							End Site
							{
								OFFSET 4.106464 0.000000 0.000000
							}
						}
					}
				}
			}
			JOINT rCollar
			{
				OFFSET -3.558935 6.707223 -0.821293
				CHANNELS 3 Yrotation Zrotation Xrotation 
				JOINT rShldr
				{
					OFFSET -3.148289 0.000000 0.000000
					CHANNELS 3 Zrotation Yrotation Xrotation 
					JOINT rForeArm
					{
						OFFSET -10.266159 0.000000 0.000000
						CHANNELS 3 Yrotation Zrotation Xrotation 
						JOINT rHand
						{
							OFFSET -8.349810 0.000000 0.000000
							CHANNELS 3 Zrotation Yrotation Xrotation 
							End Site
							{
								OFFSET -4.106464 0.000000 0.000000
							}
						}
					}
				}
			}
		}
	}
	JOINT lThigh
	{
		OFFSET 5.338403 -1.642589 1.368821
		CHANNELS 3 Xrotation Zrotation Yrotation 
		JOINT lShin
		{
			OFFSET -2.053232 -20.121670 0.000000
			CHANNELS 3 Xrotation Zrotation Yrotation 
			JOINT lFoot
			{
				OFFSET 0.000000 -19.300380 -1.231939
				CHANNELS 3 Xrotation Yrotation Zrotation 
				End Site
				{
					OFFSET 0.000000 -2.463878 4.653993
				}
			}
		}
	}
	JOINT rThigh
	{
		OFFSET -5.338403 -1.642589 1.368821
		CHANNELS 3 Xrotation Zrotation Yrotation 
		JOINT rShin
		{
			OFFSET 2.053232 -20.121670 0.000000
			CHANNELS 3 Xrotation Zrotation Yrotation 
			JOINT rFoot
			{
				OFFSET 0.000000 -19.300380 -1.231939
				CHANNELS 3 Xrotation Yrotation Zrotation 
				End Site
				{
					OFFSET 0.000000 -2.463878 4.653993
				}
			}
		}
	}
}
MOTION
Frames: 11
Frame Time: 0.033264
0.327402 18.357771 4.166928 22.923904 0.000000 0.000000 -12.005313 0.000000 0.000000 0.746833 0.882079 -0.305050 -21.007324 -1.237333 -1.052114 -6.001658 0.000000 0.000000 -13.161670 -17.645046 -50.496220 -15.286136 24.166203 -2.412699 -22.366404 -46.563412 -30.554216 6.548869 5.518396 7.958040 12.540756 16.628613 -50.150051 15.737292 -24.171614 -2.561835 22.213972 47.026634 -30.472445 -6.723192 -5.295632 8.103544 -128.369873 38.824318 -3.917993 110.722252 15.588245 -1.432165 -12.296722 5.710675 -1.082266 -128.385406 -38.833786 3.898005 110.737022 -15.631739 1.404506 -12.299825 -5.726317 1.082277 
0.327402 18.439474 4.122623 23.349730 0.000000 0.000000 -11.679956 0.000000 0.000000 1.072158 0.882079 -0.305088 -21.006767 -1.361240 -1.157487 -6.216575 0.000000 0.000000 -13.253715 -17.413673 -50.624203 -15.286136 24.166203 -2.412699 -22.486715 -46.758900 -30.637842 6.115685 4.820486 7.622881 12.685273 16.450701 -50.315514 15.737292 -24.171614 -2.561835 22.316813 47.176884 -30.543291 -6.271322 -4.622798 7.779680 -128.460693 38.661533 -3.750693 110.428795 15.575842 -1.510802 -12.210554 5.939357 -1.131475 -128.476318 -38.670956 3.730769 110.443222 -15.619157 1.483352 -12.213295 -5.954747 1.131626 
0.327402 18.521175 4.078318 23.775530 0.000000 0.000000 -11.354614 0.000000 0.000000 1.397471 0.882080 -0.305127 -21.005983 -1.485174 -1.262891 -6.431489 0.000000 0.000000 -13.345101 -17.182114 -50.751633 -15.286136 24.166203 -2.412699 -22.607883 -46.954258 -30.722368 5.687114 4.120250 7.293419 12.829120 16.272396 -50.480354 15.737292 -24.171614 -2.561835 22.420218 47.327045 -30.614738 -5.823770 -3.947605 7.461503 -128.551926 38.498936 -3.583446 110.135399 15.563058 -1.589365 -12.124153 6.167959 -1.181049 -128.567642 -38.508327 3.563587 110.149483 -15.606189 1.562122 -12.126527 -6.183095 1.181340 
0.327402 18.602877 4.034012 24.201290 0.000000 0.000000 -11.029286 0.000000 0.000000 1.722769 0.882080 -0.305165 -21.004976 -1.609137 -1.368328 -6.646400 0.000000 0.000000 -13.435837 -16.950371 -50.878529 -15.286136 24.166203 -2.412699 -22.729921 -47.149502 -30.807821 5.263075 3.417831 6.969591 12.972297 16.093699 -50.644573 15.737292 -24.171614 -2.561835 22.524189 47.477112 -30.686783 -5.380461 -3.270194 7.148959 -128.643555 38.336567 -3.416251 109.842049 15.549879 -1.667852 -12.037517 6.396482 -1.230990 -128.659363 -38.345921 3.396453 109.855797 -15.592831 1.640814 -12.039531 -6.411365 1.231424 
0.327402 18.684578 3.989707 24.627003 0.000000 0.000000 -10.703979 0.000000 0.000000 2.048047 0.882081 -0.305204 -21.003735 -1.733124 -1.473798 -6.861310 0.000000 0.000000 -13.525919 -16.718447 -51.004864 -15.286136 24.166203 -2.412699 -22.852819 -47.344578 -30.894178 4.843489 2.713381 6.651334 13.114807 15.914616 -50.808170 15.737292 -24.171614 -2.561835 22.628738 47.627075 -30.759436 -4.941323 -2.590707 6.841997 -128.735550 38.174404 -3.249108 109.548729 15.536316 -1.746259 -11.950644 6.624920 -1.281300 -128.751465 -38.183735 3.229377 109.562141 -15.579088 1.719426 -11.952291 -6.639546 1.281877 
0.327402 18.766281 3.945401 25.052664 0.000000 0.000000 -10.378696 0.000000 0.000000 2.373296 0.882081 -0.305242 -21.002270 -1.857137 -1.579301 -7.076211 0.000000 0.000000 -13.615353 -16.486341 -51.130669 -15.286136 24.166203 -2.412699 -22.976620 -47.539551 -30.981489 4.428279 2.007044 6.338590 13.256652 15.735152 -50.971153 15.737292 -24.171614 -2.561835 22.733871 47.776962 -30.832714 -4.506282 -1.909282 6.540564 -128.827988 38.012482 -3.082016 109.255478 15.522367 -1.824583 -11.863534 6.853272 -1.331980 -128.843948 -38.021763 3.062341 109.268570 -15.564958 1.797953 -11.864818 -6.867643 1.332702 
0.327402 18.847982 3.901096 25.478249 0.000000 0.000000 -10.053450 0.000000 0.000000 2.698516 0.882082 -0.305281 -21.000574 -1.981175 -1.684838 -7.291106 0.000000 0.000000 -13.704144 -16.254068 -51.255936 -15.286136 24.166203 -2.412699 -23.101316 -47.734390 -31.069748 4.017361 1.298962 6.031293 13.397836 15.555314 -51.133533 15.737292 -24.171614 -2.561835 22.839594 47.926758 -30.906610 -4.075262 -1.226059 6.244611 -128.920761 37.850773 -2.914968 108.962311 15.508037 -1.902821 -11.776180 7.081533 -1.383032 -128.936844 -37.860020 2.895361 108.975044 -15.550439 1.876392 -11.777099 -7.095650 1.383900 
0.327402 18.929684 3.856791 25.903751 0.000000 0.000000 -9.728235 0.000000 0.000000 3.023699 0.882084 -0.305319 -20.998646 -2.105236 -1.790409 -7.505990 0.000000 0.000000 -13.792294 -16.021624 -51.380661 -15.286136 24.166203 -2.412699 -23.226927 -47.929089 -31.158972 3.610659 0.589283 5.729392 13.538353 15.375103 -51.295280 15.737292 -24.171614 -2.561835 22.945904 48.076447 -30.981121 -3.648189 -0.541177 5.954086 -129.013962 37.689297 -2.747976 108.669189 15.493318 -1.980968 -11.688585 7.309702 -1.434457 -129.030121 -37.698505 2.728427 108.681587 -15.535534 1.954740 -11.689140 -7.323565 1.435471 
0.327402 19.011387 3.812485 26.329166 0.000000 0.000000 -9.403064 0.000000 0.000000 3.348840 0.882085 -0.305357 -20.996494 -2.229319 -1.896016 -7.720864 0.000000 0.000000 -13.879814 -15.789022 -51.504883 -15.286136 24.166203 -2.412699 -23.353464 -48.123650 -31.249170 3.208093 -0.121854 5.432820 13.678209 15.194523 -51.456413 15.737292 -24.171614 -2.561835 23.052809 48.226025 -31.056259 -3.224989 0.145229 5.668936 -129.107513 37.528049 -2.581026 108.376144 15.478216 -2.059024 -11.600742 7.537776 -1.486256 -129.123764 -37.537216 2.561540 108.388206 -15.520247 2.032996 -11.600930 -7.551381 1.487419 
0.327402 19.093088 3.768180 26.754465 0.000000 0.000000 -9.077941 0.000000 0.000000 3.673932 0.882086 -0.305396 -20.994112 -2.353424 -2.001659 -7.935725 0.000000 0.000000 -13.966697 -15.556254 -51.628563 -15.286136 24.166203 -2.412699 -23.480923 -48.318043 -31.340334 2.809584 -0.834306 5.141523 13.817410 15.013584 -51.616951 15.737292 -24.171614 -2.561835 23.160322 48.375511 -31.132044 -2.805588 0.833019 5.389118 -129.201447 37.367035 -2.414122 108.083160 15.462734 -2.136986 -11.512653 7.765751 -1.538432 -129.217789 -37.376171 2.394700 108.094910 -15.504574 2.111154 -11.512475 -7.779099 1.539744 
0.327402 19.174789 3.723874 27.179651 0.000000 0.000000 -8.752872 0.000000 0.000000 3.998974 0.882089 -0.305434 -20.991493 -2.477549 -2.107337 -8.150574 0.000000 0.000000 -14.052952 -15.323337 -51.751724 -15.286136 24.166203 -2.412699 -23.609324 -48.512283 -31.432493 2.415054 -1.547933 4.855441 13.955959 14.832294 -51.776890 15.737292 -24.171614 -2.561835 23.268457 48.524914 -31.208483 -2.389910 1.522061 5.114577 -129.295776 37.206268 -2.247267 107.790253 15.446866 -2.214849 -11.424316 7.993626 -1.590985 -129.312180 -37.215355 2.227902 107.801666 -15.488520 2.189214 -11.423772 -8.006716 1.592448 
